<svg width="55" height="55" viewBox="0 0 55 55" fill="none" xmlns="http://www.w3.org/2000/svg">
<g clip-path="url(#clip0)">
<path d="M44.6792 11.7211C41.4376 10.2333 38.0167 9.17233 34.5021 8.56485C34.47 8.55861 34.4368 8.56271 34.4072 8.57657C34.3776 8.59042 34.3532 8.61331 34.3375 8.64194C33.9 9.42319 33.4125 10.4419 33.0708 11.2461C29.2821 10.6707 25.4283 10.6707 21.6396 11.2461C21.2593 10.3551 20.8302 9.48569 20.3542 8.64194C20.3377 8.61395 20.3132 8.5916 20.2838 8.57784C20.2545 8.56408 20.2216 8.55955 20.1896 8.56485C16.6747 9.17106 13.2536 10.2321 10.0125 11.7211C9.98505 11.7326 9.96179 11.7522 9.94583 11.7774C3.46249 21.4628 1.68541 30.9086 2.55833 40.2357C2.56045 40.2588 2.56727 40.2813 2.57837 40.3017C2.58948 40.3221 2.60463 40.3401 2.62291 40.3544C6.39707 43.1507 10.619 45.2853 15.1083 46.6669C15.14 46.6761 15.1737 46.6754 15.2049 46.665C15.2362 46.6546 15.2635 46.6349 15.2833 46.6086C16.2458 45.2961 17.1042 43.9107 17.8375 42.4544C17.8477 42.4346 17.8536 42.4127 17.8548 42.3904C17.856 42.368 17.8525 42.3457 17.8444 42.3248C17.8363 42.304 17.8239 42.285 17.808 42.2693C17.7921 42.2536 17.773 42.2414 17.7521 42.2336C16.405 41.7181 15.101 41.0967 13.8521 40.3753C13.8292 40.362 13.8099 40.3433 13.796 40.3209C13.7821 40.2984 13.7739 40.2728 13.7723 40.2464C13.7706 40.22 13.7755 40.1936 13.7865 40.1696C13.7976 40.1455 13.8143 40.1246 13.8354 40.1086C14.0984 39.9118 14.3568 39.709 14.6104 39.5003C14.6326 39.4823 14.6593 39.4708 14.6877 39.4671C14.716 39.4634 14.7448 39.4677 14.7708 39.4794C22.9542 43.2149 31.8125 43.2149 39.9 39.4794C39.9263 39.4673 39.9555 39.4628 39.9842 39.4665C40.013 39.4702 40.0401 39.4819 40.0625 39.5003C40.3125 39.7044 40.575 39.9128 40.8396 40.1086C40.8604 40.1243 40.8771 40.1449 40.8882 40.1685C40.8992 40.1922 40.9044 40.2181 40.9031 40.2442C40.9019 40.2703 40.8943 40.2956 40.8811 40.3181C40.8678 40.3406 40.8493 40.3595 40.8271 40.3732C39.581 41.1014 38.2757 41.7231 36.925 42.2315C36.904 42.2396 36.8849 42.252 36.8689 42.2679C36.853 42.2838 36.8406 42.3029 36.8326 42.3239C36.8245 42.345 36.821 42.3674 36.8222 42.3899C36.8234 42.4124 36.8293 42.4344 36.8396 42.4544C37.5896 43.9086 38.4479 45.2919 39.3917 46.6065C39.4111 46.6333 39.4384 46.6533 39.4698 46.6638C39.5012 46.6743 39.5351 46.6746 39.5667 46.6649C44.0635 45.2874 48.2923 43.1526 52.0708 40.3524C52.0892 40.3393 52.1047 40.3226 52.1161 40.3032C52.1276 40.2838 52.1349 40.2622 52.1375 40.2399C53.1792 29.4544 50.3917 20.0857 44.7437 11.7815C44.7306 11.7535 44.7076 11.7313 44.6792 11.719L44.6792 11.7211ZM19.0604 34.5544C16.5958 34.5544 14.5667 32.294 14.5667 29.5149C14.5667 26.7378 16.5583 24.4753 19.0604 24.4753C21.5812 24.4753 23.5937 26.7586 23.5542 29.5169C23.5542 32.294 21.5625 34.5544 19.0604 34.5544ZM35.675 34.5544C33.2104 34.5544 31.1812 32.294 31.1812 29.5149C31.1812 26.7378 33.1708 24.4753 35.675 24.4753C38.1958 24.4753 40.2083 26.7586 40.1687 29.5169C40.1687 32.294 38.1979 34.5544 35.675 34.5544Z" fill="white"/>
</g>
<defs>
<clipPath id="clip0">
<rect width="50" height="50" fill="white" transform="translate(4.66235 0.50293) rotate(5.07641)"/>
</clipPath>
</defs>
</svg>
