<svg width="51" height="51" viewBox="0 0 51 51" fill="none" xmlns="http://www.w3.org/2000/svg">
<g clip-path="url(#clip0)">
<path fill-rule="evenodd" clip-rule="evenodd" d="M25.033 0.0915528C11.2205 0.0915527 0.032959 11.2791 0.032959 25.0916C0.0329589 36.1541 7.18921 45.4978 17.1267 48.8103C18.3767 49.0291 18.8455 48.2791 18.8455 47.6228C18.8455 47.0291 18.8142 45.0603 18.8142 42.9666C12.533 44.1228 10.908 41.4353 10.408 40.0291C10.1267 39.3103 8.90796 37.0916 7.84546 36.4978C6.97046 36.0291 5.72046 34.8728 7.81421 34.8416C9.78296 34.8103 11.1892 36.6541 11.658 37.4041C13.908 41.1853 17.5017 40.1228 18.9392 39.4666C19.158 37.8416 19.8142 36.7478 20.533 36.1228C14.9705 35.4978 9.15796 33.3416 9.15796 23.7791C9.15796 21.0603 10.1267 18.8103 11.7205 17.0603C11.4705 16.4353 10.5955 13.8728 11.9705 10.4353C11.9705 10.4353 14.0642 9.77905 18.8455 12.9978C20.8455 12.4353 22.9705 12.1541 25.0955 12.1541C27.2205 12.1541 29.3455 12.4353 31.3455 12.9978C36.1267 9.7478 38.2205 10.4353 38.2205 10.4353C39.5955 13.8728 38.7205 16.4353 38.4705 17.0603C40.0642 18.8103 41.033 21.0291 41.033 23.7791C41.033 33.3728 35.1892 35.4978 29.6267 36.1228C30.533 36.9041 31.3142 38.4041 31.3142 40.7478C31.3142 44.0916 31.283 46.7791 31.283 47.6228C31.283 48.2791 31.7517 49.0603 33.0017 48.8103C37.9646 47.1347 42.2771 43.9451 45.3323 39.6902C48.3874 35.4354 50.0315 30.3297 50.033 25.0916C50.033 11.2791 38.8455 0.0915528 25.033 0.0915528Z" fill="white"/>
</g>
<defs>
<clipPath id="clip0">
<rect width="50" height="50" fill="white" transform="translate(0.032959 0.0915527)"/>
</clipPath>
</defs>
</svg>
