<svg width="51" height="51" viewBox="0 0 51 51" fill="none" xmlns="http://www.w3.org/2000/svg">
<path d="M49.7038 10.6501C47.9642 11.421 46.0955 11.9418 44.1309 12.1772C46.158 10.9643 47.6745 9.05526 48.3976 6.80637C46.4931 7.9376 44.4087 8.73386 42.2351 9.16054C40.7734 7.59984 38.8373 6.56538 36.7274 6.21777C34.6175 5.87017 32.4519 6.22885 30.5668 7.23815C28.6817 8.24744 27.1825 9.85087 26.3021 11.7995C25.4216 13.7481 25.2091 15.9329 25.6976 18.0147C21.8386 17.8209 18.0635 16.8179 14.6172 15.0708C11.171 13.3236 8.13058 10.8713 5.69341 7.87304C4.86007 9.31054 4.38091 10.9772 4.38091 12.7522C4.37998 14.3501 4.77348 15.9235 5.52649 17.3329C6.2795 18.7423 7.36874 19.9439 8.69757 20.8314C7.15648 20.7823 5.64939 20.3659 4.30174 19.6168L4.30174 19.7418C4.30159 21.9829 5.07681 24.1551 6.49587 25.8897C7.91494 27.6243 9.89043 28.8146 12.0872 29.2585C10.6575 29.6454 9.15869 29.7024 7.70382 29.4251C8.32361 31.3535 9.5309 33.0398 11.1567 34.2479C12.7824 35.456 14.7453 36.1255 16.7705 36.1626C13.3326 38.8614 9.08692 40.3253 4.71632 40.3189C3.94212 40.3191 3.16857 40.2739 2.39966 40.1835C6.83607 43.0359 12.0004 44.5498 17.2747 44.5439C35.1288 44.5439 44.8892 29.7564 44.8892 16.9314C44.8892 16.5147 44.8788 16.0939 44.8601 15.6772C46.7586 14.3042 48.3974 12.6041 49.6997 10.6564L49.7038 10.6501Z" fill="white"/>
</svg>
