<svg width="51" height="51" viewBox="0 0 51 51" fill="none" xmlns="http://www.w3.org/2000/svg">
<g clip-path="url(#clip0)">
<path d="M49.8146 14.1932C49.5315 13.1833 48.98 12.2689 48.2188 11.5474C47.436 10.8036 46.4767 10.2716 45.4313 10.0015C41.5188 8.97029 25.8438 8.97029 25.8438 8.97029C19.309 8.89594 12.7759 9.22295 6.28127 9.94946C5.23583 10.2395 4.27827 10.7834 3.49377 11.5328C2.72293 12.2745 2.1646 13.189 1.87293 14.1911C1.17229 17.9656 0.831875 21.7981 0.856266 25.637C0.831266 29.4724 1.17085 33.3036 1.87293 37.0828C2.15835 38.0807 2.7146 38.9911 3.48752 39.7265C4.26043 40.462 5.22293 40.9932 6.28127 41.2745C10.2459 42.3036 25.8438 42.3036 25.8438 42.3036C32.3868 42.3781 38.9283 42.0511 45.4313 41.3245C46.4767 41.0544 47.436 40.5224 48.2188 39.7786C48.9896 39.0432 49.5375 38.1286 49.8125 37.1328C50.5315 33.3598 50.881 29.5257 50.8563 25.6849C50.9103 21.8278 50.5612 17.9756 49.8146 14.1911L49.8146 14.1932ZM20.8604 32.7703L20.8604 18.5057L33.9021 25.639L20.8604 32.7703Z" fill="white"/>
</g>
<defs>
<clipPath id="clip0">
<rect width="50" height="50" fill="white" transform="translate(0.856201 0.636963)"/>
</clipPath>
</defs>
</svg>
