<svg width="146" height="187" viewBox="0 0 146 187" fill="none" xmlns="http://www.w3.org/2000/svg">
<path d="M23.0007 97.75C20.0935 94.45 16.5139 92.0104 12.1369 90.1021C16.8015 88.5205 20.4913 86.1659 23.4173 82.7898C26.1703 79.6133 28.1128 75.6718 29.6337 70.9828C31.0068 74.5136 32.8583 77.5636 35.3761 80.2375C38.8338 83.9094 43.3879 86.6955 49.2269 89.1267C43.6256 91.1951 39.2328 93.9377 35.8361 97.8792C33.0556 101.106 31.0615 105.001 29.5543 109.687C27.9361 104.916 25.8507 100.985 23.0007 97.75Z" stroke="white" stroke-width="6"/>
<path d="M57.0316 151.442C52.8583 146.647 47.6828 143.138 41.3042 140.407C48.098 138.176 53.423 134.801 57.6129 129.908C61.536 125.326 64.2779 119.607 66.4213 112.764C68.3495 117.952 70.9776 122.403 74.592 126.288C79.5174 131.583 86.0507 135.577 94.4886 139.071C86.3865 142.017 80.0825 145.938 75.2419 151.623C71.2709 156.287 68.4505 161.95 66.3308 168.809C64.0508 161.828 61.0998 156.117 57.0316 151.442Z" stroke="white" stroke-width="8"/>
<path d="M78.4618 75.6945C72.7507 69.1148 65.6158 64.3503 56.7454 60.6621C66.1889 57.6989 73.5155 53.137 79.235 46.4388C84.6065 40.1483 88.312 32.2344 91.2025 22.696C93.789 29.9955 97.366 36.2039 102.362 41.589C109.048 48.7955 117.982 54.1999 129.614 58.9429C118.435 62.9023 109.813 68.1908 103.239 75.9334C97.7872 82.3537 93.9663 90.2078 91.1166 99.8046C88.0438 90.0408 84.043 82.1246 78.4618 75.6945Z" stroke="white" stroke-width="10"/>
</svg>
