<svg width="431" height="220" viewBox="0 0 431 220" fill="none" xmlns="http://www.w3.org/2000/svg">
<g clip-path="url(#clip0)">
<g filter="url(#filter0_b)">
<path d="M0 213V-8H395L340.571 123.04L0 213Z" fill="#FF7B39" fill-opacity="0.61"/>
</g>
<g filter="url(#filter1_b)">
<path d="M-26 190V-37H431L378.5 97.5976L-26 190Z" fill="#FF7B39" fill-opacity="0.82"/>
</g>
<path d="M71.0069 80.3607L78.4573 78.7814L77.5284 74.3988L70.0779 75.978L67.5299 63.9571L62.8969 64.9391L65.4448 76.9601L56.8048 78.7914L57.7338 83.1741L65.9355 81.4356C65.9873 90.322 64.3902 100.997 61.7977 106.977C62.9131 107.918 64.4021 109.696 65.195 110.967C66.9752 106.403 68.162 99.3472 68.6962 92.2993L74.9998 122.039L79.6329 121.056L72.8515 89.0633C75.5128 92.3591 78.8113 96.5012 80.1922 98.6945L82.4675 94.614C80.8893 92.7242 73.6566 84.8365 71.5112 82.7398L71.0069 80.3607ZM102.85 84.6019L105.518 97.1863L97.5039 98.8849L94.8365 86.3005L102.85 84.6019ZM109.566 99.9264L105.452 80.5176L90.739 83.6363L95.5563 106.363L98.9372 105.647L98.2338 102.328L109.566 99.9264ZM104.68 70.083L87.3369 73.759L88.1597 77.6408L105.502 73.9648L104.68 70.083ZM109.789 58.0746L77.858 64.8427L89.3373 119L93.6573 118.084L83.0937 68.2471L106.259 63.3369L115.602 107.414C115.801 108.353 115.541 108.67 114.678 108.918C113.801 109.104 110.921 109.714 107.952 110.213C108.843 111.332 109.947 113.453 110.387 114.603C114.519 113.727 117.386 113.054 118.904 111.882C120.373 110.786 120.618 109.164 120.06 106.534L109.789 58.0746ZM158.294 97.7103L154.923 81.8076L175.02 77.5477L174.065 73.0398L153.967 77.2997L151.074 63.651L173.488 58.9L172.519 54.3296L150.105 59.0805L147.557 47.0596L142.799 48.0682L145.347 60.0891L132.638 62.7831C133.338 59.2981 133.748 55.6783 134.02 52.0225L129.112 52.0161C128.555 61.4241 126.379 70.9135 122.413 77.5113C123.798 77.8719 126.156 78.8114 127.255 79.3636C128.974 76.0552 130.435 72.1472 131.603 67.7782L146.316 64.6596L149.209 78.3083L130.614 82.2498L131.57 86.7576L150.164 82.8162L153.535 98.7189L128.179 104.094L129.134 108.601L184.606 96.8434L183.65 92.3356L158.294 97.7103ZM189.117 48.0638L190.298 53.636C191.725 53.2682 194.829 52.4794 197.145 51.9884L227.135 45.6317L233.399 75.1831L202.658 81.6991C200.028 82.2565 197.296 82.6393 195.629 82.7965L196.836 88.4939C198.5 88.0104 201.291 87.288 203.858 86.7439L234.474 80.2544C234.73 81.7703 235.008 83.0851 235.092 83.7871L240.726 82.5927C240.452 81.6042 239.667 78.8266 239.189 76.5727L232.341 44.2665C232.023 42.7639 231.736 40.7964 231.494 39.3432C230.255 39.6712 228.39 40.1319 226.887 40.4504L196.021 46.9929C194.017 47.4176 191.236 47.8763 189.117 48.0638ZM251.726 34.793L252.907 40.3652C254.334 39.9973 257.438 39.2086 259.754 38.7176L289.744 32.3608L296.008 61.9123L265.267 68.4283C262.637 68.9856 259.905 69.3685 258.238 69.5257L259.445 75.2231C261.109 74.7396 263.9 74.0172 266.467 73.473L297.083 66.9836C297.339 68.4995 297.617 69.8143 297.701 70.5163L303.335 69.3219C303.061 68.3334 302.276 65.5558 301.798 63.3019L294.95 30.9957C294.632 29.493 294.345 27.5256 294.103 26.0723C292.864 26.4004 290.999 26.8611 289.496 27.1796L258.63 33.7221C256.626 34.1468 253.845 34.6055 251.726 34.793Z" fill="white"/>
</g>
<defs>
<filter id="filter0_b" x="-10" y="-18" width="415" height="241" filterUnits="userSpaceOnUse" color-interpolation-filters="sRGB">
<feFlood flood-opacity="0" result="BackgroundImageFix"/>
<feGaussianBlur in="BackgroundImage" stdDeviation="5"/>
<feComposite in2="SourceAlpha" operator="in" result="effect1_backgroundBlur"/>
<feBlend mode="normal" in="SourceGraphic" in2="effect1_backgroundBlur" result="shape"/>
</filter>
<filter id="filter1_b" x="-36" y="-47" width="477" height="247" filterUnits="userSpaceOnUse" color-interpolation-filters="sRGB">
<feFlood flood-opacity="0" result="BackgroundImageFix"/>
<feGaussianBlur in="BackgroundImage" stdDeviation="5"/>
<feComposite in2="SourceAlpha" operator="in" result="effect1_backgroundBlur"/>
<feBlend mode="normal" in="SourceGraphic" in2="effect1_backgroundBlur" result="shape"/>
</filter>
<clipPath id="clip0">
<rect width="431" height="220" fill="white"/>
</clipPath>
</defs>
</svg>
