<svg width="50" height="50" viewBox="0 0 50 50" fill="none" xmlns="http://www.w3.org/2000/svg">
<path d="M21.9844 5.57342C22.829 4.8637 23.8968 4.47461 25 4.47461C26.1032 4.47461 27.171 4.8637 28.0156 5.57342L42.0781 17.3984C42.6016 17.8383 43.0225 18.3873 43.3113 19.0071C43.6001 19.6268 43.7498 20.3022 43.75 20.9859V40.6265C43.75 41.4553 43.4208 42.2502 42.8347 42.8363C42.2487 43.4223 41.4538 43.7515 40.625 43.7515H32.0312C31.2024 43.7515 30.4076 43.4223 29.8215 42.8363C29.2355 42.2502 28.9062 41.4553 28.9062 40.6265V29.689H21.0938V40.6265C21.0938 41.4553 20.7645 42.2502 20.1785 42.8363C19.5924 43.4223 18.7976 43.7515 17.9688 43.7515H9.375C8.5462 43.7515 7.75134 43.4223 7.16529 42.8363C6.57924 42.2502 6.25 41.4553 6.25 40.6265V20.9844C6.25017 20.3006 6.39992 19.6252 6.68873 19.0055C6.97754 18.3858 7.39843 17.8367 7.92188 17.3969L21.9844 5.57186V5.57342ZM26.0062 7.96405C25.7246 7.72693 25.3682 7.5969 25 7.5969C24.6318 7.5969 24.2754 7.72693 23.9937 7.96405L9.93125 19.7922C9.75743 19.9385 9.61761 20.121 9.52154 20.3269C9.42547 20.5328 9.37546 20.7572 9.375 20.9844V40.625H17.9688V29.6875C17.9688 28.8587 18.298 28.0638 18.884 27.4778C19.4701 26.8917 20.2649 26.5625 21.0938 26.5625H28.9062C29.7351 26.5625 30.5299 26.8917 31.116 27.4778C31.702 28.0638 32.0312 28.8587 32.0312 29.6875V40.625H40.625V20.9844C40.625 20.7566 40.5752 20.5316 40.4791 20.3252C40.383 20.1187 40.243 19.9357 40.0687 19.789L26.0062 7.96405Z" fill="white"/>
</svg>
