<svg width="50" height="50" viewBox="0 0 50 50" fill="none" xmlns="http://www.w3.org/2000/svg">
<path d="M27.0837 9.79791C27.0837 5.92916 22.2712 4.14999 19.7524 7.08749L12.167 15.9375C11.9714 16.1662 11.7286 16.3498 11.4553 16.4756C11.1819 16.6015 10.8846 16.6667 10.5837 16.6667H10.417C8.75939 16.6667 7.16968 17.3251 5.99757 18.4972C4.82547 19.6693 4.16699 21.2591 4.16699 22.9167V27.0833C4.16699 28.7409 4.82547 30.3306 5.99757 31.5027C7.16968 32.6748 8.75939 33.3333 10.417 33.3333H10.5837C10.8846 33.3333 11.1819 33.3985 11.4553 33.5244C11.7286 33.6502 11.9714 33.8338 12.167 34.0625L19.7524 42.9125C22.2712 45.85 27.0837 44.0708 27.0837 40.2021V9.79791ZM15.3295 18.6521L22.917 9.79583V40.2L15.3295 31.3458C14.7424 30.6618 14.0143 30.113 13.1951 29.7368C12.3759 29.3607 11.4851 29.1662 10.5837 29.1667H10.417C9.86446 29.1667 9.33455 28.9472 8.94385 28.5565C8.55315 28.1658 8.33366 27.6359 8.33366 27.0833V22.9167C8.33366 22.3641 8.55315 21.8342 8.94385 21.4435C9.33455 21.0528 9.86446 20.8333 10.417 20.8333H10.5837C11.4854 20.8333 12.3764 20.6382 13.1956 20.2613C14.0148 19.8844 14.7428 19.3347 15.3295 18.65V18.6521ZM38.8253 8.90624C38.6281 8.71193 38.3942 8.55886 38.1372 8.45598C37.8802 8.3531 37.6053 8.30247 37.3285 8.30705C37.0517 8.31164 36.7786 8.37134 36.5251 8.48268C36.2717 8.59401 36.0429 8.75474 35.8523 8.95548C35.6617 9.15622 35.513 9.39294 35.4149 9.6518C35.3168 9.91067 35.2712 10.1865 35.2809 10.4632C35.2906 10.7398 35.3554 11.0118 35.4714 11.2631C35.5874 11.5145 35.7523 11.7402 35.9566 11.9271C43.5712 19.1604 43.5712 30.8396 35.9566 38.0729C35.5678 38.4561 35.3449 38.9765 35.3359 39.5223C35.3268 40.068 35.5324 40.5956 35.9082 40.9914C36.2841 41.3872 36.8003 41.6197 37.3459 41.6388C37.8914 41.658 38.4226 41.4622 38.8253 41.0937C48.1691 32.2187 48.1691 17.7812 38.8253 8.90624ZM32.6857 14.7396C32.2852 14.3589 31.7497 14.1529 31.1973 14.167C30.6448 14.181 30.1206 14.414 29.7399 14.8146C29.3592 15.2152 29.1532 15.7506 29.1673 16.303C29.1814 16.8555 29.4143 17.3797 29.8149 17.7604C34.0378 21.7708 34.0378 28.2292 29.8149 32.2396C29.4143 32.6203 29.1814 33.1445 29.1673 33.697C29.1532 34.2494 29.3592 34.7848 29.7399 35.1854C30.1206 35.586 30.6448 35.8189 31.1973 35.833C31.7497 35.8471 32.2852 35.6411 32.6857 35.2604C38.6378 29.6062 38.6378 20.3937 32.6857 14.7396Z" fill="white"/>
</svg>
