<svg width="38" height="40" viewBox="0 0 38 40" fill="none" xmlns="http://www.w3.org/2000/svg">
<path d="M15.9844 1.57342C16.829 0.863704 17.8968 0.474609 19 0.474609C20.1032 0.474609 21.171 0.863704 22.0156 1.57342L36.0781 13.3984C36.6016 13.8383 37.0225 14.3873 37.3113 15.0071C37.6001 15.6268 37.7498 16.3022 37.75 16.9859V36.6265C37.75 37.4553 37.4208 38.2502 36.8347 38.8363C36.2487 39.4223 35.4538 39.7515 34.625 39.7515H26.0312C25.2024 39.7515 24.4076 39.4223 23.8215 38.8363C23.2355 38.2502 22.9062 37.4553 22.9062 36.6265V25.689H15.0938V36.6265C15.0938 37.4553 14.7645 38.2502 14.1785 38.8363C13.5924 39.4223 12.7976 39.7515 11.9688 39.7515H3.375C2.5462 39.7515 1.75134 39.4223 1.16529 38.8363C0.57924 38.2502 0.25 37.4553 0.25 36.6265V16.9844C0.250173 16.3006 0.399915 15.6252 0.688727 15.0055C0.977538 14.3858 1.39843 13.8367 1.92188 13.3969L15.9844 1.57186V1.57342ZM20.0062 3.96405C19.7246 3.72693 19.3682 3.5969 19 3.5969C18.6318 3.5969 18.2754 3.72693 17.9937 3.96405L3.93125 15.7922C3.75743 15.9385 3.61761 16.121 3.52154 16.3269C3.42547 16.5328 3.37546 16.7572 3.375 16.9844V36.625H11.9688V25.6875C11.9688 24.8587 12.298 24.0638 12.884 23.4778C13.4701 22.8917 14.2649 22.5625 15.0938 22.5625H22.9062C23.7351 22.5625 24.5299 22.8917 25.116 23.4778C25.702 24.0638 26.0312 24.8587 26.0312 25.6875V36.625H34.625V16.9844C34.625 16.7566 34.5752 16.5316 34.4791 16.3252C34.383 16.1187 34.243 15.9357 34.0687 15.789L20.0062 3.96405Z" fill="white"/>
</svg>
